<?xml version="1.0" encoding="utf-8"?>
<!-- Generator: Adobe Illustrator 16.0.0, SVG Export Plug-In . SVG Version: 6.00 Build 0)  -->
<!DOCTYPE svg PUBLIC "-//W3C//DTD SVG 1.1//EN" "http://www.w3.org/Graphics/SVG/1.1/DTD/svg11.dtd">
<svg version="1.1" id="RSS" xmlns="http://www.w3.org/2000/svg" xmlns:xlink="http://www.w3.org/1999/xlink" x="0px" y="0px"
	 width="465.119px" height="465.121px" viewBox="0 0 465.119 465.121" enable-background="new 0 0 465.119 465.121"
	 xml:space="preserve">
<path fill="#FFFFFF" d="M6.089,6.061v70.543c211.184,0,382.368,171.248,382.368,382.427h70.604
	C459.059,208.867,256.254,6.061,6.089,6.061z M6.089,147.236v70.603c133.188,0,241.194,107.974,241.194,241.222h70.572
	C317.855,286.859,178.258,147.236,6.089,147.236z M73.711,323.727c-37.373,0-67.651,30.338-67.651,67.682s30.279,67.65,67.651,67.65
	c37.373,0,67.623-30.276,67.623-67.65C141.334,354.036,111.084,323.727,73.711,323.727z"/>
</svg>
